<svg width="24" height="23" viewBox="0 0 24 23" fill="none" xmlns="http://www.w3.org/2000/svg">
<g clip-path="url(#clip0_1_371)">
<path d="M18 7.66658H17V5.74992C17 3.10492 14.76 0.958252 12 0.958252C9.24 0.958252 7 3.10492 7 5.74992V7.66658H6C4.9 7.66658 4 8.52909 4 9.58325V19.1666C4 20.2208 4.9 21.0833 6 21.0833H18C19.1 21.0833 20 20.2208 20 19.1666V9.58325C20 8.52909 19.1 7.66658 18 7.66658ZM12 16.2916C10.9 16.2916 10 15.4291 10 14.3749C10 13.3208 10.9 12.4583 12 12.4583C13.1 12.4583 14 13.3208 14 14.3749C14 15.4291 13.1 16.2916 12 16.2916ZM15.1 7.66658H8.9V5.74992C8.9 4.11117 10.29 2.77909 12 2.77909C13.71 2.77909 15.1 4.11117 15.1 5.74992V7.66658Z" fill="#BEBCBC"/>
</g>
<defs>
<clipPath id="clip0_1_371">
<rect width="24" height="23" fill="white"/>
</clipPath>
</defs>
</svg>
