<svg width="150" height="130" viewBox="0 0 150 130" fill="none" xmlns="http://www.w3.org/2000/svg">
<path d="M41.25 45.4327H0V84.375H41.25L63.75 64.9038L41.25 45.4327ZM30 71.3942H15V58.4135H30V71.3942ZM97.5 35.6971V0H52.5V35.6971L75 55.1683L97.5 35.6971ZM67.5 12.9808H82.5V25.9615H67.5V12.9808ZM52.5 94.1106V129.808H97.5V94.1106L75 74.6394L52.5 94.1106ZM82.5 116.827H67.5V103.846H82.5V116.827ZM108.75 45.4327L86.25 64.9038L108.75 84.375H150V45.4327H108.75ZM135 71.3942H120V58.4135H135V71.3942Z" fill="white"/>
</svg>
