<svg width="150" height="131" viewBox="0 0 150 131" fill="none" xmlns="http://www.w3.org/2000/svg">
<path d="M41.25 46.3941H0V85.3364H41.25L63.75 65.8653L41.25 46.3941ZM30 72.3557H15V59.3749H30V72.3557ZM97.5 36.6585V0.961426H52.5V36.6585L75 56.1297L97.5 36.6585ZM67.5 13.9422H82.5V26.923H67.5V13.9422ZM52.5 95.072V130.769H97.5V95.072L75 75.6008L52.5 95.072ZM82.5 117.788H67.5V104.808H82.5V117.788ZM108.75 46.3941L86.25 65.8653L108.75 85.3364H150V46.3941H108.75ZM135 72.3557H120V59.3749H135V72.3557Z" fill="white"/>
</svg>
